<?xml version="1.0" encoding="utf-8"?>
<svg xmlns="http://www.w3.org/2000/svg" viewBox="0 2 691 691" width="691px" height="691px" xmlns:bx="https://boxy-svg.com"><defs><clipPath id="clip0_5_38"><rect width="3035" height="693" fill="white"/></clipPath><bx:export><bx:file format="svg"/><bx:file format="png"/><bx:file format="jpeg"/><bx:file format="webp"/></bx:export></defs><g clip-path="url(#clip0_5_38)"><circle cx="345.5" cy="347.5" r="345.5" fill="#0051d1"/><path d="M 378.393 251.276 C 379.352 245.837 384.539 242.205 389.978 243.164 L 440.263 252.031 C 445.702 252.99 449.334 258.176 448.375 263.615 L 423.36 405.48 L 554.607 428.622 C 560.046 429.581 563.678 434.768 562.719 440.207 L 551.894 501.601 C 550.935 507.04 545.748 510.671 540.309 509.712 L 306.573 468.498 L 303.871 483.818 C 302.912 489.257 297.726 492.889 292.287 491.93 L 269.772 487.96 C 264.333 487.001 260.702 481.814 261.661 476.375 L 264.362 461.055 L 171.218 444.632 C 165.779 443.673 162.147 438.486 163.106 433.047 L 173.932 371.653 C 174.092 370.743 174.371 369.882 174.75 369.087 C 174.666 368.21 174.699 367.308 174.859 366.399 L 206.054 189.481 C 207.013 184.042 212.2 180.41 217.639 181.369 L 267.924 190.236 C 273.363 191.195 276.995 196.382 276.036 201.82 L 245.65 374.145 L 278.66 379.965 L 285.413 341.667 C 286.372 336.228 291.559 332.596 296.998 333.556 L 319.512 337.525 C 324.952 338.485 328.583 343.671 327.624 349.11 L 320.871 387.408 L 353.379 393.14 L 378.393 251.276 Z" fill="white" style="transform-origin: 362.912px 345.542px;" transform="rotate(60 0 0)"/></g></svg>